{"asset":{"version":"2.0","generator":"THREE.GLTFExporter r175"},"scenes":[{"name":"AuxScene","nodes":[6]}],"scene":0,"nodes":[{"mesh":0},{"mesh":1},{"matrix":[0.9959250439247147,0,-0.9959250439247148,0,0,-1.408450704225352,0,0,0.9959250439247148,0,0.9959250439247147,0,0,0,0,1],"children":[0,1]},{"children":[2]},{"matrix":[1,0,0,0,0,1,0,0,0,0,1,0,-29.06092612328947,49.76035094177219,25.07722618503765,1],"children":[3]},{"children":[4]},{"children":[5]}],"bufferViews":[{"buffer":0,"byteOffset":0,"byteLength":17064,"target":34962,"byteStride":12},{"buffer":0,"byteOffset":17064,"byteLength":11376,"target":34962,"byteStride":8},{"buffer":0,"byteOffset":28440,"byteLength":17064,"target":34962,"byteStride":12},{"buffer":0,"byteOffset":45504,"byteLength":17136,"target":34962,"byteStride":12},{"buffer":0,"byteOffset":62640,"byteLength":11424,"target":34962,"byteStride":8},{"buffer":0,"byteOffset":74064,"byteLength":17136,"target":34962,"byteStride":12}],"buffers":[{"byteLength":91200,"uri":"data:application/octet-stream;base64,"}],"accessors":[{"bufferView":0,"componentType":5126,"count":1422,"max":[54.69033432006836,70.96047973632812,4.599999904632568],"min":[10.848971366882324,14.339799880981445,-0.6000000238418579],"type":"VEC3"},{"bufferView":1,"componentType":5126,"count":1422,"max":[65.15885162353516,70.65969848632812],"min":[11.179699897766113,-3.5999999046325684],"type":"VEC2"},{"bufferView":2,"componentType":5126,"count":1422,"max":[0.9073942303657532,0.9974040985107422,1],"min":[-0.910094678401947,-1,-1],"type":"VEC3"},{"bufferView":3,"componentType":5126,"count":1428,"max":[43.650001525878906,56.364662170410156,4.599999904632568],"min":[-0.3307260572910309,-0.30078139901161194,-0.6000000238418579],"type":"VEC3"},{"bufferView":4,"componentType":5126,"count":1428,"max":[56.364662170410156,55.940399169921875],"min":[0,-3.5999999046325684],"type":"VEC2"},{"bufferView":5,"componentType":5126,"count":1428,"max":[1,0.554063618183136,1],"min":[-0.9073696136474609,-0.9974080920219421,-1],"type":"VEC3"}],"materials":[{"pbrMetallicRoughness":{"baseColorFactor":[0.6375968739867731,0.6653872982754769,0.7083757798856457,1],"metallicFactor":0,"roughnessFactor":0.3},"doubleSided":true,"extensions":{"KHR_materials_transmission":{"transmissionFactor":1},"KHR_materials_volume":{"thicknessFactor":0,"attenuationColor":[1,1,1]}}}],"meshes":[{"primitives":[{"mode":4,"attributes":{"POSITION":0,"TEXCOORD_0":1,"NORMAL":2},"material":0}]},{"primitives":[{"mode":4,"attributes":{"POSITION":3,"TEXCOORD_0":4,"NORMAL":5},"material":0}]}],"extensionsUsed":["KHR_materials_transmission","KHR_materials_volume"]}